<svg xmlns="http://www.w3.org/2000/svg" viewBox="0 0 512.03 508.66"><defs><style>.cls-1{fill:#fff;}</style></defs><title>languages</title><g id="Calque_2" data-name="Calque 2"><g id="Calque_1-2" data-name="Calque 1"><g id="Capa_1" data-name="Capa 1"><path class="cls-1" d="M241,364V269.33H135.49c1,37.12,5.88,72.73,14.15,105A524.31,524.31,0,0,1,241,364Z"/><path class="cls-1" d="M212.86,493c9.17,7.75,18.59,13,28.14,15.66V394a496.73,496.73,0,0,0-82.74,9.12,302.25,302.25,0,0,0,15.19,36.45c11.55,23.1,24.81,41.07,39.41,53.43Z"/><path class="cls-1" d="M338.55,439.57a302.25,302.25,0,0,0,15.19-36.45A496.73,496.73,0,0,0,271,394V508.66c9.55-2.68,19-7.91,28.14-15.67,14.6-12.35,27.86-30.32,39.41-53.42Z"/><path class="cls-1" d="M383.06,98.6a320.18,320.18,0,0,0,58-21.8c-1.23-1.28-2.46-2.55-3.71-3.8a255.44,255.44,0,0,0-101-62.34c10.55,12.47,20.3,27.53,29,45A332.25,332.25,0,0,1,383.06,98.6Z"/><path class="cls-1" d="M271,269.33V364a524.3,524.3,0,0,1,91.36,10.32c8.27-32.25,13.12-67.86,14.15-105Z"/><path class="cls-1" d="M173.45,69.1a300,300,0,0,0-15.19,36.45A496.72,496.72,0,0,0,241,114.66V0c-9.55,2.68-19,7.91-28.14,15.67C198.26,28,185,46,173.45,69.1Z"/><path class="cls-1" d="M241,239.33V144.68a524.3,524.3,0,0,1-91.36-10.32c-8.27,32.25-13.12,67.85-14.15,105Z"/><path class="cls-1" d="M128.94,410.06a321.21,321.21,0,0,0-58,21.8c1.23,1.28,2.46,2.55,3.71,3.81a255.23,255.23,0,0,0,101,62.33c-10.55-12.47-20.3-27.52-29-45A332.63,332.63,0,0,1,129,410.08Z"/><path class="cls-1" d="M391.51,381.32c25.55,7.08,49,16.19,69.52,27.1a254,254,0,0,0,51-139.09H406.52c-1,39.43-6.18,77.41-15,112Z"/><path class="cls-1" d="M383.06,410.06A330.9,330.9,0,0,1,365.39,453c-8.75,17.5-18.5,32.55-29.05,45a255.23,255.23,0,0,0,101-62.33c1.25-1.26,2.48-2.53,3.71-3.81A320.83,320.83,0,0,0,383.06,410.06Z"/><path class="cls-1" d="M391.51,127.34c8.83,34.58,14,72.56,15,112H512a254,254,0,0,0-51-139.09c-20.49,10.92-44,20-69.52,27.1Z"/><path class="cls-1" d="M271,144.68v94.65H376.51c-1-37.12-5.88-72.72-14.15-105A524.33,524.33,0,0,1,271,144.68Z"/><path class="cls-1" d="M299.14,15.67C290,7.91,280.55,2.68,271,0V114.66a496.73,496.73,0,0,0,82.74-9.12A301.44,301.44,0,0,0,338.55,69.1C327,46,313.74,28,299.14,15.67Z"/><path class="cls-1" d="M128.94,98.6a332.63,332.63,0,0,1,17.67-42.92c8.75-17.49,18.5-32.55,29-45A255.4,255.4,0,0,0,74.66,73c-1.25,1.25-2.48,2.52-3.71,3.8a320.18,320.18,0,0,0,58,21.8Z"/><path class="cls-1" d="M120.49,381.32c-8.83-34.58-14-72.56-15-112H0a254.06,254.06,0,0,0,51,139.1C71.46,397.51,94.94,388.4,120.49,381.32Z"/><path class="cls-1" d="M120.49,127.34c-25.55-7.08-49-16.18-69.52-27.1A254.08,254.08,0,0,0,0,239.33H105.48C106.52,199.9,111.66,161.92,120.49,127.34Z"/></g></g></g></svg>