<svg xmlns="http://www.w3.org/2000/svg" viewBox="0 0 60.47 51.53"><defs><style>.cls-1{fill:#595959;}</style></defs><title>motivation-2</title><g id="Calque_2" data-name="Calque 2"><g id="Calque_1-2" data-name="Calque 1"><g id="Calque_1-2-2" data-name="Calque 1-2"><g id="Calque_1-2-2-2" data-name="Calque 1-2-2"><rect class="cls-1" x="6.33" y="44.46" width="2.26" height="2" transform="translate(-20.42 8.78) rotate(-27.92)"/><rect class="cls-1" x="9.33" y="42.88" width="2.26" height="2" transform="translate(-19.33 10) rotate(-27.92)"/><path class="cls-1" d="M52.77,21.45A1,1,0,0,0,51.45,21L41,26.56l.94,1.76,9.53-5.05,1.27,2.48a1,1,0,0,0,1.34.44h0a1,1,0,0,0,.46-.5l5.84-13.57a1,1,0,0,0-.5-1.32.49.49,0,0,0-.17-.06L45.26,7.52A1,1,0,0,0,44.15,9l1.3,2.47-4,2.19.4-4a7.26,7.26,0,0,0-1.79-5.57,6,6,0,0,0-4.45-2h-.16a5.1,5.1,0,0,0-3.25-2,5.55,5.55,0,0,0-1-.09H29.8C23,0,17.34,5.12,17.34,11.42v.14l.57,4a4.15,4.15,0,0,0-.58,2,3.54,3.54,0,0,0,3.29,3.7,8.55,8.55,0,0,0,1.18,2.92l-.84.45,1,1.76,1.16-.63a10.43,10.43,0,0,0,1.1.89v1.66c-2.92.38-11.74,2-11.74,7.79v9.73a1,1,0,0,0,1,1h30.3a1,1,0,0,0,1-1v-.7l4.67-2.48.5,1a1,1,0,0,0,.92.54,1,1,0,0,0,.88-.6L55,36.21a1,1,0,0,0-.52-1.31.64.64,0,0,0-.18-.06l-8-1.84a1,1,0,0,0-1,.37,1,1,0,0,0-.1,1.06l.51,1-1,.52c-.21-5.52-8-7.15-10.74-7.55V26.91a9.36,9.36,0,0,0,4.46-5.54h0a3.52,3.52,0,0,0,3.33-3.7h0a3.72,3.72,0,0,0-.4-1.73l5.83-3.16a1,1,0,0,0,.41-1.33L46.83,10,58,12.44l-4.49,10.5ZM29.8,2h1.42a3.39,3.39,0,0,1,.64.06,3.2,3.2,0,0,1,2.2,1.51,1,1,0,0,0,.87.5h.64a3.89,3.89,0,0,1,3,1.33,5.32,5.32,0,0,1,1.29,4h0l-.47,4.65H39L38.71,14v-.57a1,1,0,0,0-.84-1A9,9,0,0,1,33,9.66a1,1,0,0,0-.74-.32,1.16,1.16,0,0,0-.76.32l-.11.1c-1.69,1.3-8.55,3-9.6,2.73a1,1,0,0,0-1.31.53,1,1,0,0,0-.08.39V14a1,1,0,0,0-.24.05,2.41,2.41,0,0,0-.37.07h-.11l-.38-2.75C19.38,6.19,24.06,2,29.8,2ZM19.34,17.66a2.07,2.07,0,0,1,.42-1.22,1.31,1.31,0,0,1,.69-.44v3.34A1.65,1.65,0,0,1,19.34,17.66ZM26.89,28a7.52,7.52,0,0,0,2.26.31h.91a4.63,4.63,0,0,0,.65-.1h.09c.26-.06.5-.12.75-.2h0l.42-.13v1.28a.72.72,0,0,1-.07.25v.12l0,.09-.06.09h0l-.06.07-.15.15-.14.09-.11.06-.15.06a.79.79,0,0,1-.22.05H27.45A1.29,1.29,0,0,1,26.2,29.1V27.81a5.6,5.6,0,0,0,.54.17Zm20.64,8.72A1,1,0,0,0,48,35.41l4.7,1.05-1.9,4.42a1,1,0,0,0-.58-.47,1,1,0,0,0-.77.07L44.78,43V38.24Zm-4.75-.55V44.9H38.91V40.06h-2v4.87H20.32V40.06h-2v4.87H14.45V36.2c0-3.8,6.72-5.41,10-5.82l.06.1.09.16a2.23,2.23,0,0,0,.2.3l.11.14a3.26,3.26,0,0,0,.31.33l.05.05q.21.16.42.3l.14.08.33.16.18.07.35.1h.17a2.44,2.44,0,0,0,.54,0h3.8a2.28,2.28,0,0,0,.45-.11,2.74,2.74,0,0,0,.4-.15,2,2,0,0,0,.51-.29l.3-.23a2,2,0,0,0,.35-.37h0a3,3,0,0,0,.32-.47h0l.09-.16c2.35.37,9.11,1.77,9.11,5.81ZM32.56,25.45c-.29.14-.57.27-.89.4a3.33,3.33,0,0,1-.63.21l-.55.15h-.1a4.34,4.34,0,0,1-.52.08h-.18a4.17,4.17,0,0,1-.5,0,6.74,6.74,0,0,1-3.52-1,7.24,7.24,0,0,1-1.28-1,6.84,6.84,0,0,1-2-4.22V14.45a28.37,28.37,0,0,0,9.74-2.83,11.39,11.39,0,0,0,4.53,2.58v5.4a2.94,2.94,0,0,1,0,.42v.08A7.18,7.18,0,0,1,32.56,25.45Zm6.15-6.11V16h0a1.22,1.22,0,0,1,.33.14l.06.05a.84.84,0,0,1,.29.27,1.88,1.88,0,0,1,.41,1.22A1.62,1.62,0,0,1,38.71,19.34Z"/><rect class="cls-1" x="7.37" y="31.71" width="2" height="2" transform="translate(-14.58 7.95) rotate(-28.47)"/><rect class="cls-1" x="10.88" y="29.8" width="2" height="2" transform="translate(-13.24 9.38) rotate(-28.46)"/><rect class="cls-1" x="3.86" y="33.62" width="2" height="2" transform="translate(-15.91 6.5) rotate(-28.46)"/><rect class="cls-1" x="17.94" y="25.99" width="2" height="2" transform="translate(-10.57 12.29) rotate(-28.47)"/><rect class="cls-1" x="0.36" y="35.52" width="2" height="2" transform="translate(-17.24 5.06) rotate(-28.47)"/><rect class="cls-1" x="14.4" y="27.9" width="2" height="2" transform="translate(-11.91 10.83) rotate(-28.46)"/><path class="cls-1" d="M4.15,29.77a1,1,0,0,0,.59,1.29A1,1,0,0,0,6,30.57l8.33-12A1,1,0,0,0,13.49,17h-3l.58-6.92A1,1,0,0,0,10.18,9a1,1,0,0,0-.89.44l-6.67,10a1,1,0,0,0,0,1,1,1,0,0,0,.83.53H6.19ZM5.32,19,8.8,13.78l-.35,4.14a1.05,1.05,0,0,0,.26.76,1,1,0,0,0,.74.32h2.09L7.28,25.14l1.17-4.91a1,1,0,0,0-.19-.85A1,1,0,0,0,7.45,19Z"/><rect class="cls-1" x="34.95" y="47.44" width="2" height="2" transform="translate(-17.6 20.67) rotate(-26.01)"/><rect class="cls-1" x="31.36" y="49.19" width="2" height="2" transform="translate(-18.73 19.28) rotate(-26.01)"/><rect class="cls-1" x="21.56" y="47.46" width="2" height="2" transform="translate(-18.96 14.8) rotate(-26.01)"/><rect class="cls-1" x="17.96" y="49.19" width="2" height="2" transform="translate(-20.09 13.4) rotate(-26.01)"/></g></g></g></g></svg>