<svg xmlns="http://www.w3.org/2000/svg" viewBox="0 0 95 89.2"><defs><style>.cls-1{fill:#595959;}</style></defs><title>software-2</title><g id="Calque_2" data-name="Calque 2"><g id="Calque_1-2" data-name="Calque 1"><g id="Calque_1-2-2" data-name="Calque 1-2"><g id="Calque_1-2-2-2" data-name="Calque 1-2-2"><circle class="cls-1" cx="10.1" cy="9.8" r="2.2"/><circle class="cls-1" cx="16.5" cy="9.8" r="2.2"/><circle class="cls-1" cx="22.9" cy="9.8" r="2.2"/><path class="cls-1" d="M39,56a1.74,1.74,0,0,0-2.1-1.2,12.6,12.6,0,0,0-8.8,8.8,1.79,1.79,0,0,0,1.2,2.1c.1,0,.3.1.4.1a1.71,1.71,0,0,0,1.6-1.2,9.18,9.18,0,0,1,6.4-6.4A1.84,1.84,0,0,0,39,56Z"/><path class="cls-1" d="M40.3,60.5A6.5,6.5,0,1,0,46.8,67,6.5,6.5,0,0,0,40.3,60.5Zm0,9.6A3.1,3.1,0,1,1,43.4,67a3.1,3.1,0,0,1-3.1,3.1Z"/><path class="cls-1" d="M93.3,44.8H82.8V3.2A3.22,3.22,0,0,0,79.6,0H3.2A3.22,3.22,0,0,0,0,3.2V65.6a3.22,3.22,0,0,0,3.2,3.2H21.5A19,19,0,0,0,40.3,86a18,18,0,0,0,9.5-2.6v4.1a1.75,1.75,0,0,0,1.7,1.7H93.3A1.75,1.75,0,0,0,95,87.5v-41A1.75,1.75,0,0,0,93.3,44.8ZM79.4,3.4V16.1H3.4V3.4ZM40.3,82.5a15.5,15.5,0,1,1,0-31,15.23,15.23,0,0,1,9.5,3.3V79.3A15.55,15.55,0,0,1,40.3,82.5Zm9.5-36v4.1A18.82,18.82,0,0,0,21.5,65.3H3.4V19.5h76V44.8H51.5A1.75,1.75,0,0,0,49.8,46.5ZM91.6,85.8H53.2V48.2H91.6Z"/><path class="cls-1" d="M63.9,73.9a1.69,1.69,0,0,0,2.39,0h0a1.63,1.63,0,0,0,.1-2.3l-.1-.1-4.9-4.9,4.9-4.9a1.7,1.7,0,0,0-2.4-2.4l-6.1,6.1a1.7,1.7,0,0,0-.5,1.2,1.85,1.85,0,0,0,.5,1.2Z"/><path class="cls-1" d="M78.5,73.9a1.69,1.69,0,0,0,2.39,0h0L87,67.8a1.7,1.7,0,0,0,.5-1.2,1.85,1.85,0,0,0-.5-1.2l-6.1-6.1a1.7,1.7,0,0,0-2.4,2.4l4.9,4.9-4.9,4.9a1.63,1.63,0,0,0-.1,2.3A.47.47,0,0,0,78.5,73.9Z"/><path class="cls-1" d="M70,77.2h.4A1.54,1.54,0,0,0,72,75.9l4.1-17.1a1.69,1.69,0,0,0-3.26-.91h0v.21L68.7,75.2A1.69,1.69,0,0,0,70,77.2Z"/></g></g></g></g></svg>